# Blender v2.79 (sub 0) OBJ File: ''
# www.blender.org
mtllib cone_rotated.mtl
o Cone
v 1.198583 -0.288000 -0.700106
v 2.817639 0.038010 0.807334
v 1.178083 -0.468455 -0.626314
v 1.147252 -0.630510 -0.520404
v 1.107277 -0.767938 -0.386445
v 1.059694 -0.875459 -0.229586
v 1.006331 -0.948939 -0.055855
v 0.949239 -0.985553 0.128072
v 0.890612 -0.983898 0.315127
v 0.832702 -0.944035 0.498122
v 0.777736 -0.867496 0.670023
v 0.727826 -0.757223 0.824225
v 0.684890 -0.617454 0.954802
v 0.650577 -0.453559 1.056736
v 0.626207 -0.271836 1.126109
v 0.612715 -0.079271 1.160257
v 0.610621 0.116737 1.157866
v 0.620005 0.308656 1.119028
v 0.640506 0.489112 1.045236
v 0.671336 0.651167 0.939325
v 0.711311 0.788595 0.805366
v 0.758894 0.896115 0.648507
v 0.812258 0.969594 0.474775
v 0.869350 1.006210 0.290848
v 0.927977 1.004555 0.103793
v 0.985886 0.964691 -0.079201
v 1.040852 0.888151 -0.251102
v 1.090762 0.777878 -0.405304
v 1.133699 0.638108 -0.535881
v 1.168011 0.474213 -0.637815
v 1.192382 0.292491 -0.707188
v 1.205873 0.099926 -0.741335
v 1.207967 -0.096083 -0.738944
vn 0.6761 -0.3434 -0.6519
vn 0.6530 -0.4975 -0.5711
vn 0.6212 -0.6322 -0.4632
vn 0.5818 -0.7423 -0.3324
vn 0.5364 -0.8238 -0.1837
vn 0.4867 -0.8733 -0.0228
vn 0.4346 -0.8890 0.1441
vn 0.3822 -0.8703 0.3105
vn 0.3314 -0.8180 0.4702
vn 0.2843 -0.7339 0.6169
vn 0.2425 -0.6215 0.7450
vn 0.2078 -0.4849 0.8495
vn 0.1814 -0.3294 0.9266
vn 0.1643 -0.1611 0.9732
vn 0.1573 0.0137 0.9875
vn 0.1606 0.1882 0.9689
vn 0.1740 0.3557 0.9182
vn 0.1971 0.5098 0.8374
vn 0.2290 0.6445 0.7295
vn 0.2684 0.7547 0.5987
vn 0.3138 0.8361 0.4500
vn 0.3635 0.8856 0.2891
vn 0.4155 0.9013 0.1223
vn 0.4679 0.8827 -0.0442
vn 0.5187 0.8303 -0.2038
vn 0.5659 0.7463 -0.3505
vn 0.6076 0.6338 -0.4786
vn 0.6424 0.4972 -0.5832
vn 0.6688 0.3417 -0.6603
vn 0.6858 0.1734 -0.7068
vn 0.6928 -0.0014 -0.7211
vn 0.6895 -0.1759 -0.7026
vn -0.9542 -0.0138 -0.2989
usemtl None
s 1
f 1//1 2//1 3//1
f 3//2 2//2 4//2
f 4//3 2//3 5//3
f 5//4 2//4 6//4
f 6//5 2//5 7//5
f 7//6 2//6 8//6
f 8//7 2//7 9//7
f 9//8 2//8 10//8
f 10//9 2//9 11//9
f 11//10 2//10 12//10
f 12//11 2//11 13//11
f 13//12 2//12 14//12
f 14//13 2//13 15//13
f 15//14 2//14 16//14
f 16//15 2//15 17//15
f 17//16 2//16 18//16
f 18//17 2//17 19//17
f 19//18 2//18 20//18
f 20//19 2//19 21//19
f 21//20 2//20 22//20
f 22//21 2//21 23//21
f 23//22 2//22 24//22
f 24//23 2//23 25//23
f 25//24 2//24 26//24
f 26//25 2//25 27//25
f 27//26 2//26 28//26
f 28//27 2//27 29//27
f 29//28 2//28 30//28
f 30//29 2//29 31//29
f 31//30 2//30 32//30
f 32//31 2//31 33//31
f 33//32 2//32 1//32
f 17//33 25//33 9//33
f 33//33 1//33 3//33
f 3//33 4//33 5//33
f 5//33 6//33 7//33
f 7//33 8//33 5//33
f 9//33 10//33 11//33
f 11//33 12//33 9//33
f 13//33 14//33 17//33
f 15//33 16//33 17//33
f 17//33 18//33 19//33
f 19//33 20//33 21//33
f 21//33 22//33 23//33
f 23//33 24//33 25//33
f 25//33 26//33 27//33
f 27//33 28//33 29//33
f 29//33 30//33 33//33
f 31//33 32//33 33//33
f 33//33 3//33 9//33
f 5//33 8//33 9//33
f 9//33 12//33 13//33
f 14//33 15//33 17//33
f 17//33 19//33 25//33
f 21//33 23//33 25//33
f 25//33 27//33 33//33
f 30//33 31//33 33//33
f 3//33 5//33 9//33
f 9//33 13//33 17//33
f 19//33 21//33 25//33
f 27//33 29//33 33//33
f 33//33 9//33 25//33
