# Blender v2.79 (sub 0) OBJ File: ''
# www.blender.org
mtllib cone.mtl
o Cone
v -0.019038 0.930382 -1.069449
v -0.019038 2.930382 -0.069449
v 0.176052 0.930382 -1.050235
v 0.363645 0.930382 -0.993329
v 0.536532 0.930382 -0.900919
v 0.688069 0.930382 -0.776556
v 0.812432 0.930382 -0.625020
v 0.904841 0.930382 -0.452133
v 0.961747 0.930382 -0.264540
v 0.980962 0.930382 -0.069449
v 0.961747 0.930382 0.125641
v 0.904841 0.930382 0.313234
v 0.812432 0.930382 0.486121
v 0.688069 0.930382 0.637657
v 0.536532 0.930382 0.762020
v 0.363645 0.930382 0.854430
v 0.176052 0.930382 0.911336
v -0.019038 0.930382 0.930551
v -0.214129 0.930382 0.911336
v -0.401722 0.930382 0.854430
v -0.574609 0.930382 0.762020
v -0.726145 0.930382 0.637657
v -0.850508 0.930382 0.486120
v -0.942918 0.930382 0.313233
v -0.999824 0.930382 0.125640
v -1.019038 0.930382 -0.069450
v -0.999823 0.930382 -0.264541
v -0.942917 0.930382 -0.452134
v -0.850507 0.930382 -0.625021
v -0.726144 0.930382 -0.776557
v -0.574607 0.930382 -0.900920
v -0.401720 0.930382 -0.993329
v -0.214127 0.930382 -1.050235
vn 0.0878 0.4455 -0.8910
vn 0.2599 0.4455 -0.8567
vn 0.4220 0.4455 -0.7896
vn 0.5680 0.4455 -0.6921
vn 0.6921 0.4455 -0.5680
vn 0.7896 0.4455 -0.4220
vn 0.8567 0.4455 -0.2599
vn 0.8910 0.4455 -0.0878
vn 0.8910 0.4455 0.0878
vn 0.8567 0.4455 0.2599
vn 0.7896 0.4455 0.4220
vn 0.6921 0.4455 0.5680
vn 0.5680 0.4455 0.6921
vn 0.4220 0.4455 0.7896
vn 0.2599 0.4455 0.8567
vn 0.0878 0.4455 0.8910
vn -0.0878 0.4455 0.8910
vn -0.2599 0.4455 0.8567
vn -0.4220 0.4455 0.7896
vn -0.5680 0.4455 0.6921
vn -0.6921 0.4455 0.5680
vn -0.7896 0.4455 0.4220
vn -0.8567 0.4455 0.2599
vn -0.8910 0.4455 0.0878
vn -0.8910 0.4455 -0.0878
vn -0.8567 0.4455 -0.2599
vn -0.7896 0.4455 -0.4220
vn -0.6921 0.4455 -0.5680
vn -0.5680 0.4455 -0.6921
vn -0.4220 0.4455 -0.7896
vn -0.2599 0.4455 -0.8567
vn -0.0878 0.4455 -0.8910
vn 0.0000 -1.0000 0.0000
usemtl None
s off
f 1//1 2//1 3//1
f 3//2 2//2 4//2
f 4//3 2//3 5//3
f 5//4 2//4 6//4
f 6//5 2//5 7//5
f 7//6 2//6 8//6
f 8//7 2//7 9//7
f 9//8 2//8 10//8
f 10//9 2//9 11//9
f 11//10 2//10 12//10
f 12//11 2//11 13//11
f 13//12 2//12 14//12
f 14//13 2//13 15//13
f 15//14 2//14 16//14
f 16//15 2//15 17//15
f 17//16 2//16 18//16
f 18//17 2//17 19//17
f 19//18 2//18 20//18
f 20//19 2//19 21//19
f 21//20 2//20 22//20
f 22//21 2//21 23//21
f 23//22 2//22 24//22
f 24//23 2//23 25//23
f 25//24 2//24 26//24
f 26//25 2//25 27//25
f 27//26 2//26 28//26
f 28//27 2//27 29//27
f 29//28 2//28 30//28
f 30//29 2//29 31//29
f 31//30 2//30 32//30
f 32//31 2//31 33//31
f 33//32 2//32 1//32
f 17//33 25//33 9//33
f 33//33 1//33 3//33
f 3//33 4//33 5//33
f 5//33 6//33 7//33
f 7//33 8//33 5//33
f 9//33 10//33 11//33
f 11//33 12//33 9//33
f 13//33 14//33 17//33
f 15//33 16//33 17//33
f 17//33 18//33 19//33
f 19//33 20//33 21//33
f 21//33 22//33 23//33
f 23//33 24//33 25//33
f 25//33 26//33 27//33
f 27//33 28//33 29//33
f 29//33 30//33 33//33
f 31//33 32//33 33//33
f 33//33 3//33 9//33
f 5//33 8//33 9//33
f 9//33 12//33 13//33
f 14//33 15//33 17//33
f 17//33 19//33 25//33
f 21//33 23//33 25//33
f 25//33 27//33 33//33
f 30//33 31//33 33//33
f 3//33 5//33 9//33
f 9//33 13//33 17//33
f 19//33 21//33 25//33
f 27//33 29//33 33//33
f 33//33 9//33 25//33
